<svg xmlns="http://www.w3.org/2000/svg" viewBox="0 0 338.56 338.57" role="img" aria-label="Detelder"><path fill="#fff" d="M140.63,43.89l28.65,28.65L197.87,44a129.78,129.78,0,0,0-57.24-.06m28.65,33a1.73,1.73,0,0,1-1.26-.53L135.85,44.15a1.78,1.78,0,0,1,.82-3,133.55,133.55,0,0,1,65.16.06,1.78,1.78,0,0,1,.82,3L170.54,76.32a1.72,1.72,0,0,1-1.26.53"/><path fill="#fff" d="M140.93,294.75a130.39,130.39,0,0,0,56.64,0L169.28,266.4Zm28.19,6.68A132.8,132.8,0,0,1,137,297.48a1.77,1.77,0,0,1-.83-3L168,262.62a1.81,1.81,0,0,1,2.52,0l31.81,31.81a1.78,1.78,0,0,1-.83,3,133.36,133.36,0,0,1-32.4,4"/><path fill="#fff" d="M266.21,169.48l28.3,28.31a129.26,129.26,0,0,0,.07-56.68Zm29.3,33.61a1.78,1.78,0,0,1-1.27-.53l-31.81-31.81a1.8,1.8,0,0,1,0-2.53l31.89-31.9a1.85,1.85,0,0,1,1.74-.46,1.81,1.81,0,0,1,1.25,1.29,132.82,132.82,0,0,1-.07,64.58A1.79,1.79,0,0,1,296,203a2.14,2.14,0,0,1-.48.07"/><path fill="#fff" d="M43.71,140.83a129.7,129.7,0,0,0,.07,57.22l28.57-28.57Zm-.92,62.51a1.91,1.91,0,0,1-.47-.07A1.8,1.8,0,0,1,41.06,202,133.07,133.07,0,0,1,41,136.88a1.77,1.77,0,0,1,3-.82l32.17,32.16a1.8,1.8,0,0,1,0,2.53L44.05,202.82a1.8,1.8,0,0,1-1.26.52"/><path fill="#fff" d="M237.82,238v40a129.61,129.61,0,0,0,40-40ZM236,283a1.77,1.77,0,0,1-.88-.24,1.75,1.75,0,0,1-.9-1.55V236.23a1.79,1.79,0,0,1,1.78-1.79h45a1.8,1.8,0,0,1,1.55.9,1.78,1.78,0,0,1,0,1.8A133,133,0,0,1,237,282.69a1.88,1.88,0,0,1-.92.26"/><path fill="#fff" d="M60.2,100.94h40.55V60.39A129.52,129.52,0,0,0,60.2,100.94m42.33,3.56H57a1.79,1.79,0,0,1-1.56-.9,1.83,1.83,0,0,1,0-1.8,133.38,133.38,0,0,1,46.12-46.13,1.76,1.76,0,0,1,1.8,0,1.79,1.79,0,0,1,.9,1.54v45.52a1.78,1.78,0,0,1-1.78,1.78"/><path fill="#fff" d="M201.24,234.44h33v-33ZM236,238h-39.1a1.79,1.79,0,0,1-1.26-3l39.1-39.1a1.79,1.79,0,0,1,3,1.27v39.1A1.78,1.78,0,0,1,236,238"/><path fill="#fff" d="M104.31,104.5v33l33-33Zm-1.78,39.11a1.7,1.7,0,0,1-.69-.14,1.75,1.75,0,0,1-1.09-1.64V102.72a1.77,1.77,0,0,1,1.78-1.78h39.1a1.79,1.79,0,0,1,1.65,1.09,1.81,1.81,0,0,1-.39,2l-39.1,39.11a1.79,1.79,0,0,1-1.26.52"/><path fill="#fff" d="M237.82,100.94H278A129.56,129.56,0,0,0,237.82,60.6Zm43.39,3.56H236a1.78,1.78,0,0,1-1.78-1.78V57.41a1.79,1.79,0,0,1,2.7-1.53,133,133,0,0,1,45.79,45.92,1.81,1.81,0,0,1,0,1.8,1.79,1.79,0,0,1-1.56.9"/><path fill="#fff" d="M60.44,238a129.44,129.44,0,0,0,40.31,40.17V238Zm42.09,45.14a1.87,1.87,0,0,1-.92-.25,132.86,132.86,0,0,1-45.89-45.76,1.78,1.78,0,0,1,0-1.8,1.8,1.8,0,0,1,1.55-.9h45.28a1.78,1.78,0,0,1,1.78,1.78v45.14a1.81,1.81,0,0,1-.9,1.56,1.83,1.83,0,0,1-.88.23"/><path fill="#fff" d="M201.24,104.5l33,33v-33ZM236,143.61a1.79,1.79,0,0,1-1.26-.52L195.66,104a1.81,1.81,0,0,1-.38-2,1.78,1.78,0,0,1,1.65-1.09H236a1.78,1.78,0,0,1,1.79,1.78v39.11a1.78,1.78,0,0,1-1.1,1.64,1.7,1.7,0,0,1-.69.14"/><path fill="#fff" d="M104.31,234.44h33l-33-33ZM141.63,238h-39.1a1.77,1.77,0,0,1-1.78-1.78v-39.1a1.78,1.78,0,0,1,1.09-1.65,1.82,1.82,0,0,1,2,.38l39.1,39.1a1.77,1.77,0,0,1,.39,1.94,1.79,1.79,0,0,1-1.65,1.11"/><path fill="#fff" d="M145.93,100.94h46.7L169.28,77.58Zm51,3.56h-55.3a1.78,1.78,0,0,1-1.26-3L168,73.79a1.83,1.83,0,0,1,2.52,0l27.65,27.67a1.78,1.78,0,0,1-1.26,3"/><path fill="#fff" d="M145.93,238l23.35,23.34L192.63,238Zm23.35,27.66a1.84,1.84,0,0,1-1.26-.52l-27.65-27.66a1.78,1.78,0,0,1,1.27-3.05h55.29a1.78,1.78,0,0,1,1.26,3.05l-27.65,27.66a1.84,1.84,0,0,1-1.26.52"/><path fill="#fff" d="M77.39,169.48l23.36,23.34V146.13Zm25.14,29.43a1.8,1.8,0,0,1-1.27-.53L73.61,170.75a1.85,1.85,0,0,1-.52-1.27,1.8,1.8,0,0,1,.52-1.26l27.65-27.65a1.79,1.79,0,0,1,3,1.26v55.3a1.79,1.79,0,0,1-1.1,1.65,2,2,0,0,1-.68.13"/><path fill="#fff" d="M237.82,146.13v46.69l23.35-23.34ZM236,198.91a2,2,0,0,1-.68-.13,1.79,1.79,0,0,1-1.1-1.65v-55.3a1.79,1.79,0,0,1,3.05-1.26L265,168.22a1.75,1.75,0,0,1,.52,1.26,1.81,1.81,0,0,1-.52,1.27L237.3,198.38a1.82,1.82,0,0,1-1.27.53"/><path fill="#fff" d="M169.12,24.12C89.08,24.12,24,89.24,24,169.29S89.08,314.45,169.12,314.45s145.15-65.12,145.15-145.16S249.15,24.12,169.12,24.12m0,302.39C82.43,326.51,11.9,256,11.9,169.29S82.43,12.07,169.12,12.07,326.33,82.6,326.33,169.29,255.81,326.51,169.12,326.51"/><path fill="#fff" d="M169.28,2.68C77.42,2.68,2.68,77.43,2.68,169.29s74.74,166.6,166.6,166.6,166.6-74.74,166.6-166.6S261.15,2.68,169.28,2.68m0,335.89C75.94,338.57,0,262.64,0,169.29S75.94,0,169.28,0,338.56,76,338.56,169.29,262.62,338.57,169.28,338.57"/><path fill="#fff" d="M135.39,127.63h36.42a52.27,52.27,0,0,1,23.68,5.18,38.33,38.33,0,0,1,16.07,14.64,44.6,44.6,0,0,1,0,43.67,38.33,38.33,0,0,1-16.07,14.64,52.27,52.27,0,0,1-23.68,5.17H135.39Zm35.7,70.21a35.37,35.37,0,0,0,16.13-3.51,25.13,25.13,0,0,0,10.71-10,32.1,32.1,0,0,0,0-30.11,25.16,25.16,0,0,0-10.71-10,35.37,35.37,0,0,0-16.13-3.51H150.86v57.12Z"/></svg>